<svg xmlns="http://www.w3.org/2000/svg" viewBox="0 0 1600 900" preserveAspectRatio="xMidYMid slice"><defs><linearGradient id="sky" x1="0" y1="0" x2="0" y2="1"><stop offset="0" stop-color="#dcefe7"/><stop offset="1" stop-color="#f4f7ee"/></linearGradient><linearGradient id="m1" x1="0" y1="0" x2="1" y2="1"><stop stop-color="#8aa998"/><stop offset="1" stop-color="#557b68"/></linearGradient><linearGradient id="m2" x1="0" y1="0" x2="1" y2="1"><stop stop-color="#b4c9b8"/><stop offset="1" stop-color="#789782"/></linearGradient></defs><rect width="1600" height="900" fill="url(#sky)"/><circle cx="1280" cy="180" r="105" fill="#fff5c7" opacity=".72"/><path d="M0 620 L220 360 L380 535 L590 250 L820 560 L1030 300 L1260 560 L1430 390 L1600 610 V900 H0Z" fill="url(#m2)" opacity=".78"/><path d="M0 700 L190 500 L330 625 L520 400 L720 650 L920 430 L1130 665 L1340 470 L1600 690 V900 H0Z" fill="url(#m1)" opacity=".62"/><path d="M590 250 L535 315 L590 298 L625 330 L665 290 Z M1030 300 L980 360 L1030 340 L1070 375 L1100 330 Z" fill="#f8fbf5" opacity=".9"/><g fill="#fff" opacity=".35"><ellipse cx="300" cy="180" rx="120" ry="35"/><ellipse cx="430" cy="185" rx="100" ry="30"/><ellipse cx="870" cy="130" rx="130" ry="34"/></g><path d="M0 760 Q300 690 600 760 T1200 750 T1600 770 V900 H0Z" fill="#5d8b65" opacity=".32"/></svg>